<svg xmlns="http://www.w3.org/2000/svg" width="160.229" height="26.136" viewBox="0 0 160.229 26.136">
  <path id="partner_4" d="M133.2,269.822h-6.717L116.3,293.367h6.717Zm-7.894,0h-6.094l-4.882,11.357.623-11.357h-6.163L98.576,293.367H104.7l4.917-11.323L109,293.367h6.094Zm15.789,0h-6.579l-10.18,23.545h6.579l4.259-9.868v9.868h18.49l2.459-5.679h-5.471l1.558-3.6H157.2l2.285-5.263H154.5l1.454-3.358h5.471l2.424-5.644H151.934l-9.869,22.749-.658-11.288,9.868-11.461H144.8l-7.548,8.969Zm110.747,2.268v-4.844l-4.81,3.027v11.639a8.226,8.226,0,0,0,.068.942,13.45,13.45,0,0,0,.538,2.624,12.149,12.149,0,0,0,2.826,4.44,11.3,11.3,0,0,0,8.308,3.431h.033v-4.81a6.606,6.606,0,0,1-4.911-2.051,6.678,6.678,0,0,1-2.052-4.743v-5.617h2.59l3.767-4h-6.357m-6.459,1.715c-.168-.2-.37-.4-.572-.605a11.816,11.816,0,0,0-16.65,0,4.047,4.047,0,0,0-.37.4l2.455,4.743a7.092,7.092,0,0,1,1.278-1.749,6.985,6.985,0,0,1,9.889,0,7.352,7.352,0,0,1,.673.774Zm-21.763-.572a11.3,11.3,0,0,0-8.309-3.431,11.426,11.426,0,0,0-8.342,3.431,11.068,11.068,0,0,0-2.456,3.6,11.572,11.572,0,0,0-.975,4.709,11.341,11.341,0,0,0,.975,4.709,12.03,12.03,0,0,0,2.456,3.6,11.816,11.816,0,0,0,16.65,0l.235-.235-2.456-4.676a6.888,6.888,0,0,1-1.177,1.48,6.962,6.962,0,0,1-11.874-4.911A6.731,6.731,0,0,1,210.4,276.6a7.02,7.02,0,0,1,11.033,1.581,1.564,1.564,0,0,1,.168.336l4.305,8.241v-.034a11.846,11.846,0,0,0,18.938,3.129,4.918,4.918,0,0,0,.4-.437l-2.59-4.575a6.922,6.922,0,0,1-1.211,1.648,6.979,6.979,0,0,1-11.033-1.513,3.664,3.664,0,0,0-.2-.37l-4.709-8.948a12.527,12.527,0,0,0-1.884-2.388m-43.527,1.312a6.809,6.809,0,0,1,.841.033l4.507-4.844H179.59a10.139,10.139,0,0,0-1.043.068,11.287,11.287,0,0,0-6.9,3.363,11.168,11.168,0,0,0-3.431,7.939v12.21h4.911V281.373a6.678,6.678,0,0,1,2.052-4.743,6.6,6.6,0,0,1,4.911-2.052m6.728-2.556a12.348,12.348,0,0,0-1.447,1.244,11.37,11.37,0,0,0-1.783,2.287,11.883,11.883,0,0,0,0,12.076,10.445,10.445,0,0,0,1.817,2.287,12.34,12.34,0,0,0,1.446,1.245,11.2,11.2,0,0,0,6.9,2.22c.4,0,.774-.033,1.177-.067a11.149,11.149,0,0,0,7.131-3.4,5.628,5.628,0,0,0,.437-.471l-2.422-4.305A8.479,8.479,0,0,1,199,286.519a6.685,6.685,0,0,1-4.07,1.985,7.075,7.075,0,0,1-.841.033,6.718,6.718,0,0,1-3.8-1.11,7.385,7.385,0,0,1-1.144-.942,6.532,6.532,0,0,1-2.018-4.81v-.2a6.878,6.878,0,0,1,2.018-4.844,7.265,7.265,0,0,1,1.11-.908,6.528,6.528,0,0,1,3.835-1.143,6.806,6.806,0,0,1,.841.033,6.665,6.665,0,0,1,2.321.706l-6.324,6.29h4.911l7.232-7.232a10.667,10.667,0,0,0-1.009-1.144,11.184,11.184,0,0,0-7.131-3.364c-.37-.034-.774-.068-1.177-.068a11.515,11.515,0,0,0-6.929,2.22Z" transform="translate(-98.576 -267.245)"/>
</svg>
