<svg xmlns="http://www.w3.org/2000/svg" width="133.228" height="27.265" viewBox="0 0 133.228 27.265">
  <g id="partner_2" transform="translate(0 0.24)">
    <g id="Сгруппировать_25" data-name="Сгруппировать 25" transform="translate(0 -0.24)">
      <path id="Контур_657" data-name="Контур 657" d="M5432.49-771.823c.719.492,1.452.955,2.132,1.511a6.708,6.708,0,0,1-1.37,10.9,11.9,11.9,0,0,1-5.34,1.178c-3.755.022-7.511,0-11.266.017-.466,0-.629-.1-.627-.6.019-4.353,0-8.706.014-13.059a3.092,3.092,0,0,1,3.03-3.14c.609-.083,1.23-.048,1.834-.179a41.807,41.807,0,0,1,8.924,2.187q.967.357,1.932.721A1.238,1.238,0,0,1,5432.49-771.823Z" transform="translate(-5416.019 782.771)" fill="#00dcc0"/>
      <path id="Контур_658" data-name="Контур 658" d="M5432.536-819.016a58.413,58.413,0,0,0-6.908-2.277c-1.518-.332-3.024-.72-4.568-.918-.206-.148-.537.061-.687-.242-.642-.179-1.286-.349-1.924-.538a3.059,3.059,0,0,1-2.346-3.046c-.054-1.172-.018-2.348-.029-3.522,0-.237.026-.392.328-.386,4.511.09,9.025-.19,13.532.167a7.872,7.872,0,0,1,2.339.569c2.791,1.135,3.534,3.588,3.228,6.136A5.114,5.114,0,0,1,5432.536-819.016Z" transform="translate(-5416.064 829.965)" fill="#125eec"/>
      <path id="Контур_659" data-name="Контур 659" d="M5877.18-804.93a6.3,6.3,0,0,1,4.774,2.335,5.1,5.1,0,0,1,.916,1.982c.085.347-.011.483-.369.558a21.077,21.077,0,0,0-2.269.583c-.418.138-.537,0-.7-.352a3.483,3.483,0,0,0-4.724-1.625,1.522,1.522,0,0,0-.884,1.445,1.393,1.393,0,0,0,.962,1.3c1.757.8,3.662,1.219,5.4,2.071a5.358,5.358,0,0,1,2.716,2.337,5.1,5.1,0,0,1-2.36,6.707,7.561,7.561,0,0,1-8.315-.658,6.038,6.038,0,0,1-2.293-4.258c-.041-.293.011-.463.354-.528.9-.172,1.805-.356,2.691-.6.4-.109.466.048.524.368a6.567,6.567,0,0,0,.29,1.129,3.064,3.064,0,0,0,3.917,2.231,4.532,4.532,0,0,0,1.188-.339,1.7,1.7,0,0,0,1.108-1.6,1.843,1.843,0,0,0-1.012-1.75,16.226,16.226,0,0,0-3.517-1.382,11.421,11.421,0,0,1-3.154-1.5c-2.444-1.577-2.374-5.38-.018-7.165A6.993,6.993,0,0,1,5877.18-804.93Z" transform="translate(-5807.246 808.393)" fill="#101419"/>
      <path id="Контур_660" data-name="Контур 660" d="M6194.251-772.341a4.734,4.734,0,0,1,5.642-1.273,4.234,4.234,0,0,1,2.625,4.109c.051,2.853.007,5.708.02,8.561,0,.36-.094.48-.461.468-.759-.026-1.521-.032-2.279,0-.412.018-.488-.135-.486-.51.016-2.393.009-4.787.008-7.181,0-.184.007-.369-.008-.552-.135-1.565-.886-2.366-2.169-2.317-1.837.069-2.73.891-2.737,2.558-.011,2.463-.015,4.925.009,7.388,0,.462-.081.649-.589.617-.757-.047-1.52-.031-2.278,0-.371.013-.46-.115-.46-.472q.018-6.111,0-12.221c0-.356.092-.489.461-.475a16.777,16.777,0,0,0,2-.005c.571-.047.809.118.7.7A4.212,4.212,0,0,0,6194.251-772.341Z" transform="translate(-6083.919 781.791)" fill="#101419"/>
      <path id="Контур_661" data-name="Контур 661" d="M6087.973-772.02a3.179,3.179,0,0,1,3.565-1.6c.348.079.449.213.38.565-.145.743-.27,1.492-.362,2.244-.042.346-.118.459-.5.4-1.847-.272-2.789.489-2.839,2.389-.063,2.39-.053,4.783-.029,7.175.005.557-.16.7-.69.669-.733-.045-1.472-.024-2.208,0-.3.008-.392-.081-.392-.386q.014-6.244,0-12.489c0-.325.084-.441.421-.429.689.024,1.382.041,2.069,0,.492-.032.663.128.594.607A7.349,7.349,0,0,0,6087.973-772.02Z" transform="translate(-5992.407 781.491)" fill="#101419"/>
      <path id="Контур_662" data-name="Контур 662" d="M5729.491-764.416c0,1.98-.012,3.96.01,5.94,0,.432-.082.606-.557.579-.757-.043-1.519-.028-2.279,0-.361.012-.468-.1-.467-.465q.018-6.113,0-12.226c0-.354.091-.488.461-.477.782.024,1.567.029,2.349,0,.4-.016.493.128.49.507C5729.482-768.514,5729.491-766.465,5729.491-764.416Z" transform="translate(-5683.31 779.214)" fill="#101419"/>
      <path id="Контур_663" data-name="Контур 663" d="M6149.908-764.469c0,1.981-.014,3.961.011,5.942.006.458-.075.655-.587.622-.734-.047-1.474-.028-2.211-.005-.346.011-.476-.072-.474-.45q.026-6.114.013-12.229c0-.4.127-.5.508-.49.736.028,1.476.034,2.211,0,.424-.02.544.1.539.532C6149.895-768.522,6149.908-766.5,6149.908-764.469Z" transform="translate(-6045.623 779.224)" fill="#101419"/>
      <path id="Контур_664" data-name="Контур 664" d="M5727.928-804.976c-1.677,0-1.677,0-1.677-1.663,0-1.378,0-1.382,1.415-1.376.595,0,1.362-.194,1.737.1.4.314.118,1.117.128,1.7.021,1.234.006,1.234-1.257,1.234Z" transform="translate(-5683.354 811.103)" fill="#11151a"/>
      <path id="Контур_665" data-name="Контур 665" d="M6148.04-807.644c1.564,0,1.564,0,1.563,1.57,0,1.471,0,1.483-1.442,1.465-.589-.008-1.373.264-1.712-.124-.288-.33-.087-1.093-.087-1.664,0-1.247,0-1.247,1.265-1.247Z" transform="translate(-6045.318 810.73)" fill="#101419"/>
      <path id="Контур_666" data-name="Контур 666" d="M5439.294-775.64c.221.1.495.056.687.242l-1.951,0C5438.411-775.693,5438.907-775.377,5439.294-775.64Z" transform="translate(-5434.986 783.152)" fill="#59d4dc"/>
      <path id="Контур_667" data-name="Контур 667" d="M5625.717-794.511a5,5,0,0,0,1.145-1.081,4.065,4.065,0,0,0,.278-4.14,4.423,4.423,0,0,0-3.8-2.709c-2.638-.228-5.292-.042-7.937-.095-.455-.009-.456.213-.455.546q.012,4.246,0,8.492,0,3.97,0,7.94c0,.215-.141.533.313.521a78.709,78.709,0,0,0,8.553-.161,5,5,0,0,0,4.292-4A4.558,4.558,0,0,0,5625.717-794.511Zm-6.842-4.932c1.105.018,2.211-.011,3.316.015a1.86,1.86,0,0,1,2.017,1.963,1.845,1.845,0,0,1-2.027,1.939c-.529.016-1.059,0-1.589,0v0c-.576,0-1.152-.019-1.727.007-.35.016-.483-.072-.474-.451q.04-1.518,0-3.039C5618.38-799.4,5618.543-799.448,5618.875-799.443Zm4.063,11.107c-.686.048-1.376.009-2.065.009v.036c-.667,0-1.333-.012-2,.005-.327.008-.492-.045-.483-.442.027-1.216.02-2.434,0-3.651,0-.322.08-.437.419-.431,1.355.022,2.711-.013,4.065.028a2.027,2.027,0,0,1,2.038,2.072C5624.937-789.219,5624.3-788.431,5622.938-788.336Z" transform="translate(-5587.43 806.347)" fill="#101419"/>
      <path id="Контур_668" data-name="Контур 668" d="M6299.307-773.286c-.351-.3-1.133-.106-1.726-.11-1.222-.008-1.222,0-1.4,1.158a9.55,9.55,0,0,0-.8-.728,5.371,5.371,0,0,0-6.486.625c-2.747,2.578-2.7,7.083-1.237,9.564,1.858,3.152,6.107,3.936,8.458,1.311,0,.59,0,1.11,0,1.63a2.472,2.472,0,0,1-2.661,2.744,3.479,3.479,0,0,1-3.338-2.142c-.445.3-.846.566-1.245.837-1.333.9-1.347,1.044-.216,2.249.032.033.066.064.1.1a6.508,6.508,0,0,0,4.919,1.755,5.576,5.576,0,0,0,5.751-5.742q0-5.766,0-11.531C6299.415-772.162,6299.678-772.968,6299.307-773.286Zm-3.164,5.3c-.015.39,0,.782,0,1.173s0,.782,0,1.173a2.6,2.6,0,0,1-1.693,2.652,3.066,3.066,0,0,1-3.326-.619c-1.576-1.434-1.567-5.328.183-6.617a3.078,3.078,0,0,1,3.244-.406A2.551,2.551,0,0,1,6296.143-767.981Z" transform="translate(-6166.278 781.551)" fill="#101419"/>
      <path id="Контур_669" data-name="Контур 669" d="M5776.946-773.025c0-.368-.158-.409-.455-.4-.506.017-1.013,0-1.519,0-1.091,0-1.09,0-1.149,1.083,0,.024-.062.046-.1.07a9.29,9.29,0,0,0-.808-.738,5.379,5.379,0,0,0-6.583.758,8.2,8.2,0,0,0-1.141,9.4c1.9,3.293,6.206,3.923,8.5,1.319,0,.766.024,1.383,0,2a2.3,2.3,0,0,1-1.782,2.266,3.377,3.377,0,0,1-3.489-.895c-.316-.318-.409-1-.844-.967-.419.032-.809.48-1.208.751-1.33.9-1.344,1.055-.213,2.232.031.033.065.065.1.1a6.648,6.648,0,0,0,5.414,1.707,5.418,5.418,0,0,0,5.247-5.3C5777-764.093,5776.933-768.56,5776.946-773.025Zm-3.227,6.132h-.013c0,.483.026.967,0,1.448a2.585,2.585,0,0,1-1.78,2.464,2.957,2.957,0,0,1-3.2-.614c-1.674-1.589-1.647-5.089.045-6.564a3.01,3.01,0,0,1,3.286-.514,2.591,2.591,0,0,1,1.672,2.676C5773.715-767.629,5773.72-767.261,5773.72-766.893Z" transform="translate(-5716.07 781.573)" fill="#101419"/>
      <path id="Контур_670" data-name="Контур 670" d="M5990.825-769.779a5.609,5.609,0,0,0-4.586-4.017,4.788,4.788,0,0,0-4.534,1.551,3.776,3.776,0,0,1,0-.538c.107-.584-.132-.755-.7-.7a11.34,11.34,0,0,1-1.795,0c-.473-.033-.62.094-.618.594q.029,8.774,0,17.549c0,.465.089.661.6.625a11.088,11.088,0,0,1,1.933,0c.645.068.745-.186.735-.762-.036-1.991-.014-3.983-.014-6,.106.042.158.047.181.075,1.752,2.171,5.848,1.915,7.736-.655A8,8,0,0,0,5990.825-769.779Zm-4.016,6.172a2.968,2.968,0,0,1-3.28.529,2.59,2.59,0,0,1-1.675-2.537c-.013-.437,0-.874,0-1.311,0-.368,0-.736,0-1.1a2.716,2.716,0,0,1,1.835-2.781,3.228,3.228,0,0,1,3.408.871A5.051,5.051,0,0,1,5986.809-763.607Z" transform="translate(-5900.805 781.628)" fill="#101419"/>
    </g>
  </g>
</svg>
