<svg xmlns="http://www.w3.org/2000/svg" width="189.922" height="10.188" viewBox="0 0 189.922 10.188">
  <g id="partner_1" transform="translate(-1.538 -91.132)">
    <path id="Контур_718" data-name="Контур 718" d="M86.206,101.091H78.339V91.365h7.867Z" fill="#fff" fill-rule="evenodd"/>
    <path id="Контур_719" data-name="Контур 719" d="M78.339,91.365h7.867V93.55H78.339Zm0,7.539h7.867v2.187H78.339Z" fill="#4f4d67" fill-rule="evenodd"/>
    <path id="Контур_720" data-name="Контур 720" d="M86.206,101.091h7.867V91.365H86.206Z" fill="#ca3432" fill-rule="evenodd"/>
    <path id="Контур_721" data-name="Контур 721" d="M94.073,91.365H86.206V93.55h7.867Zm0,7.539H86.206v2.187h7.867Z" fill="#4f4d67" fill-rule="evenodd"/>
    <path id="partner_1-2" data-name="partner_1" d="M4.779,101.15V92.467H1.538V91.3H9.326v1.164H6.085v8.683Zm13.088-7.939a3.32,3.32,0,0,1,2.375-.95,3.211,3.211,0,0,1,1.752.494,3.112,3.112,0,0,1,1.186,1.39,5.042,5.042,0,0,1,.405,2.1,4.187,4.187,0,0,1-.948,2.934,3.326,3.326,0,0,1-4.811.01,3.945,3.945,0,0,1-.955-2.8,4.247,4.247,0,0,1,1-3.174Zm-1.775,5.605a4.311,4.311,0,0,0,1.656,1.833,4.644,4.644,0,0,0,2.48.671,4.88,4.88,0,0,0,2.387-.607,4.117,4.117,0,0,0,1.71-1.789,5.815,5.815,0,0,0,.6-2.68,5.912,5.912,0,0,0-.573-2.643,4.246,4.246,0,0,0-1.666-1.817,4.7,4.7,0,0,0-2.454-.651,4.46,4.46,0,0,0-3.393,1.388,5.352,5.352,0,0,0-1.313,3.837,5.555,5.555,0,0,0,.563,2.458Zm15.99,2.334V91.3h1.95l2.333,6.97q.323.974.47,1.457.171-.537.528-1.578L39.741,91.3H41.48v9.848H40.227V92.914L37.35,101.15H36.176l-2.842-8.379v8.379H32.082Zm16.953,0V91.3h1.951l2.332,6.97q.323.974.471,1.457.169-.537.529-1.578L56.7,91.3h1.739v9.848H57.182V92.914l-2.877,8.236H53.13l-2.842-8.379v8.379H49.035Zm19.765,0V96.978L65.005,91.3h1.568l1.941,2.983q.536.81,1.011,1.657.455-.772,1.08-1.743l1.907-2.9h1.517l-3.921,5.676v4.172Zm31.667,0V91.3h1.306V95.35h5.1V91.3h1.309v9.847h-1.309V96.514h-5.1v4.636Zm14.232,0V91.3h1.307v9.847Zm7.66,0V91.3h1.307v8.684h4.852v1.163h-6.159Zm11.879,0V91.3h6.66v1.164h-5.353v3.044h4.637v1.163h-4.637v4.476Zm12.7,0V91.3h1.307v9.847Zm12.313-3.858V96.129h4.172v3.654a7.287,7.287,0,0,1-1.979,1.151,5.852,5.852,0,0,1-2.094.386,5.586,5.586,0,0,1-2.631-.62,4.108,4.108,0,0,1-1.789-1.8,5.7,5.7,0,0,1-.6-2.628,6.1,6.1,0,0,1,.6-2.685,4.007,4.007,0,0,1,1.727-1.852,5.4,5.4,0,0,1,2.6-.6,5.125,5.125,0,0,1,1.928.346,3.208,3.208,0,0,1,1.354.964,4.291,4.291,0,0,1,.744,1.612l-1.172.322a3.637,3.637,0,0,0-.551-1.185,2.246,2.246,0,0,0-.938-.689,3.442,3.442,0,0,0-1.355-.259,3.982,3.982,0,0,0-1.543.272,2.835,2.835,0,0,0-1.049.718,3.379,3.379,0,0,0-.623.977,5.192,5.192,0,0,0-.375,1.987,4.823,4.823,0,0,0,.453,2.209,2.9,2.9,0,0,0,1.318,1.32,4.068,4.068,0,0,0,1.838.431,4.353,4.353,0,0,0,1.65-.327,4.219,4.219,0,0,0,1.221-.7v-1.84Zm10.273,3.858V91.3h7.088v1.164h-5.781v3.008h5.406v1.164h-5.406v3.348h6.016v1.163h-7.323ZM184.094,92.4h3.117a2.373,2.373,0,0,1,1.6.45A1.47,1.47,0,0,1,189.323,94a1.6,1.6,0,0,1-.262.883,1.49,1.49,0,0,1-.766.592,4.22,4.22,0,0,1-1.4.185h-2.8V92.4Zm0,8.754V96.782h1.512a3.846,3.846,0,0,1,.725.047,1.919,1.919,0,0,1,.6.262,2.946,2.946,0,0,1,.662.658q.369.469.941,1.354l1.3,2.047h1.629l-1.705-2.678a6.7,6.7,0,0,0-1.078-1.308,3.39,3.39,0,0,0-.785-.491,3.426,3.426,0,0,0,2.1-.914,2.477,2.477,0,0,0,.678-1.768,2.816,2.816,0,0,0-.408-1.486,2.2,2.2,0,0,0-1.1-.938,5.84,5.84,0,0,0-2-.265h-4.371v9.848h1.3Z" fill-rule="evenodd"/>
  </g>
</svg>
