<svg id="partner_3" xmlns="http://www.w3.org/2000/svg" width="124.184" height="33.617" viewBox="0 0 124.184 33.617">
  <g id="Сгруппировать_32" data-name="Сгруппировать 32" transform="translate(36.528 7.64)">
    <path id="Контур_696" data-name="Контур 696" d="M150.6,48.794V33.513h1.965l9.338,12.3v-12.3h1.868v15.28h-1.965l-9.338-12.418V48.794Zm28.378-.606a11.34,11.34,0,0,1-3.978.7q-8.3,0-8.3-7.956,0-7.531,8-7.543a14.185,14.185,0,0,1,4.269.631v1.7a11.1,11.1,0,0,0-4.051-.752c-4.172,0-6.258,1.989-6.258,5.918,0,4.245,2.062,6.355,6.161,6.355a10.68,10.68,0,0,0,2.183-.267V41.857h1.965v6.33Zm3.153-5.288V33.513H184.1V42.9c0,2.935,1.455,4.414,4.39,4.414,2.911,0,4.39-1.48,4.39-4.414V33.513h1.965V42.9c0,4-2.11,6.015-6.355,6.015S182.131,46.9,182.131,42.9Zm18.191-9.387v13.68h8v1.6h-9.969V33.513Zm10.842,15.28H209.1L216.694,31.5l7.592,17.294H222.1l-1.965-4.8h-5.045l.534-1.6h3.856l-2.862-6.913-5.457,13.316Zm15.232,0V33.513h6.525c2.911,0,4.366,1.213,4.366,3.662,0,1.989-1.431,3.468-4.269,4.414l5.239,7.2h-2.6l-4.851-6.864V40.644c2.911-.461,4.39-1.577,4.39-3.371,0-1.407-.8-2.11-2.425-2.11h-4.366V48.794H226.4Z" transform="translate(-150.6 -31.5)" fill="#b52e31" fill-rule="evenodd"/>
  </g>
  <path id="Контур_697" data-name="Контур 697" d="M0,5.579,15.644,0,31.7,5.482l-2.6,20.689L15.644,33.617,2.4,26.268Z" fill="#e23237" fill-rule="evenodd"/>
  <path id="Контур_698" data-name="Контур 698" d="M80.557,5.482,64.5,0V33.617l13.461-7.446,2.6-20.689Z" transform="translate(-48.856)" fill="#b52e31" fill-rule="evenodd"/>
  <path id="Контур_699" data-name="Контур 699" d="M34.15,16.2,24.4,37.884l3.638-.073L30,32.911H38.71l2.134,4.948,3.468.073L34.15,16.2Zm.024,6.961,3.3,6.888H31.288Z" transform="translate(-18.482 -12.271)" fill="#fff" fill-rule="evenodd"/>
</svg>
