<svg xmlns="http://www.w3.org/2000/svg" width="160.243" height="29.084" viewBox="0 0 160.243 29.084">
  <path id="partner_5" d="M24.24,81.836V110.41H20.588V85.4H16.257V81.836ZM42.794,98.9H33.071V97.631a3.172,3.172,0,0,1,3.185-3.142h3.4a3.135,3.135,0,0,1,3.142,3.142Zm3.652-1.23a6.777,6.777,0,0,0-6.793-6.751h-3.4a6.814,6.814,0,0,0-6.837,6.751v6.5c0,3.736,3.143,6.24,6.879,6.24h7.812v-3.65H36.3c-1.741,0-3.227-.893-3.227-2.633v-1.656H46.447v-4.8Zm13.417,9.17,5.01-15.922h4.034L62.623,110.41H55.4L49.121,90.922h4.033l5.011,15.922Zm21.994,3.566H71.709v-3.566h3.227V90.922h3.651v15.921h3.27v3.567ZM79.139,84.681A2.373,2.373,0,1,1,78.444,83,2.374,2.374,0,0,1,79.139,84.681ZM86.4,106.844h9.171a2.266,2.266,0,0,0,2.208-2.291,2.116,2.116,0,0,0-2.208-2.082H91.2a5.774,5.774,0,0,1,.043-11.548h9.426v3.566H91.284A2.212,2.212,0,0,0,89.118,96.7a2.166,2.166,0,0,0,2.123,2.164h4.374a5.72,5.72,0,0,1,5.818,5.691,5.833,5.833,0,0,1-5.818,5.857H86.4Zm24.584,1.273a2.8,2.8,0,1,1-2.8-2.8A2.827,2.827,0,0,1,110.984,108.117Zm19.235,2.293H122.66a6.731,6.731,0,0,1-6.75-6.707V97.674a6.74,6.74,0,0,1,6.75-6.751h7.559v3.566H122.7a3.135,3.135,0,0,0-3.143,3.142v6.113a3.126,3.126,0,0,0,3.143,3.1h7.516Zm15.115-15.921a2.6,2.6,0,0,1,2.59,2.589v7.176a2.6,2.6,0,0,1-2.59,2.59h-5.1a2.61,2.61,0,0,1-2.633-2.59V97.078a2.609,2.609,0,0,1,2.633-2.589Zm.041-3.567H140.2a6.2,6.2,0,0,0-6.24,6.156v7.176a6.206,6.206,0,0,0,6.24,6.156h5.18a6.17,6.17,0,0,0,6.2-6.156V97.078A6.17,6.17,0,0,0,145.375,90.922ZM156.33,110.41V96.1a5.092,5.092,0,0,1,5.053-5.179H164.1a4.96,4.96,0,0,1,3.186,1.146,4.956,4.956,0,0,1,3.184-1.146h.977A5.092,5.092,0,0,1,176.5,96.1v14.309h-3.65V95.89a1.371,1.371,0,0,0-1.316-1.4h-1.1a1.271,1.271,0,0,0-1.314,1.188V110.41h-3.652V95.677a1.272,1.272,0,0,0-1.316-1.188h-2.8a1.376,1.376,0,0,0-1.357,1.4v14.52H156.33Z" transform="translate(-16.257 -81.836)" fill-rule="evenodd"/>
</svg>
