<svg xmlns="http://www.w3.org/2000/svg" xmlns:xlink="http://www.w3.org/1999/xlink" width="1440" height="767.893" viewBox="0 0 1440 767.893">
  <defs>
    <linearGradient id="linear-gradient" x1="0.437" y1="0.219" x2="0.5" y2="1" gradientUnits="objectBoundingBox">
      <stop offset="0" stop-color="#f9f0ff"/>
      <stop offset="1" stop-color="#e2f1ff"/>
    </linearGradient>
    <clipPath id="clip-path">
      <path id="bg" d="M0,543.546,1439.516,418.053l.484-642.4L0-58.2Z" transform="translate(0 2156.347)" opacity="0.47" fill="url(#linear-gradient)"/>
    </clipPath>
  </defs>
  <g id="Группа_масок_4" data-name="Группа масок 4" transform="translate(0 -1932)" clip-path="url(#clip-path)">
    <g id="partner_2" transform="translate(475 2463.64)">
      <path id="Контур_694" data-name="Контур 694" d="M707.981,67.252a1.965,1.965,0,0,0-2.786,0l-.348.35a1.985,1.985,0,0,0,0,2.8l.371.372a12.937,12.937,0,0,1,2.962-3.32Zm12.035-1.936c0-.043.012-.083.012-.127V64.2a1.975,1.975,0,0,0-1.969-1.979h-3.448a1.975,1.975,0,0,0-1.969,1.979v.972A12.706,12.706,0,0,1,720.016,65.315Zm-14.76,12.33a10.973,10.973,0,1,0,10.973-10.973,10.973,10.973,0,0,0-10.973,10.973Zm10.973-7.838a7.838,7.838,0,1,1-7.838,7.838A7.847,7.847,0,0,1,716.228,69.808Zm1.832,1.713-1.786,6.327,5.751-3.151A6.583,6.583,0,0,0,718.06,71.521Z" transform="translate(-644.433 -56.934)" fill="#42afda"/>
      <path id="Контур_695" data-name="Контур 695" d="M21.583,31.1q-.664-1.764-1.277-3.547-.6-1.743-1.237-3.547H6.543L4.029,31.1H0q1.477-4.085,2.992-8.155Q4.32,19.37,5.725,15.829,7.006,12.594,8.378,9.4q1.315-3.063,2.753-6.071h3.55Q16.119,6.334,17.434,9.4q1.371,3.2,2.653,6.432,1.4,3.542,2.733,7.112,1.515,4.07,2.992,8.155H21.583Zm-3.63-10.3q-1.24-3.386-2.533-6.753Q14.2,10.873,12.806,7.774q-1.4,3.006-2.653,6.271Q8.861,17.4,7.659,20.8H17.952ZM35.545,31.5q-3.431-.08-4.866-1.483a5.868,5.868,0,0,1-1.436-4.368v-25L32.952,0V25.045a6.079,6.079,0,0,0,.16,1.523,2.1,2.1,0,0,0,.519.962,2.238,2.238,0,0,0,.958.541,9.894,9.894,0,0,0,1.475.3L35.545,31.5Zm17.673-2.484a9.8,9.8,0,0,1-1.855.822,9.377,9.377,0,0,1-3.212.5,10.281,10.281,0,0,1-3.531-.6,7.67,7.67,0,0,1-2.892-1.864,9.018,9.018,0,0,1-1.955-3.145,12.611,12.611,0,0,1-.718-4.488,12.385,12.385,0,0,1,.678-4.188,9.3,9.3,0,0,1,1.975-3.286A9.053,9.053,0,0,1,44.88,10.6a10.9,10.9,0,0,1,4.229-.782,23.751,23.751,0,0,1,4.528.381q1.934.382,3.251.7V29.493q0,4.808-2.473,6.972t-7.5,2.163a20.294,20.294,0,0,1-3.69-.32,21.072,21.072,0,0,1-3.012-.761l.678-3.246a17.291,17.291,0,0,0,2.733.781,16.352,16.352,0,0,0,3.371.341q3.312,0,4.768-1.323a5.428,5.428,0,0,0,1.456-4.208v-.882ZM51.682,13.244a18.013,18.013,0,0,0-2.533-.141,5.63,5.63,0,0,0-4.608,1.964,7.938,7.938,0,0,0-1.616,5.209,9.18,9.18,0,0,0,.458,3.086,6.121,6.121,0,0,0,1.237,2.124,4.842,4.842,0,0,0,1.8,1.242,5.662,5.662,0,0,0,2.095.4,8.381,8.381,0,0,0,2.712-.421,6.692,6.692,0,0,0,1.955-.981V13.544a12.223,12.223,0,0,0-1.5-.3ZM92.906,31.5q-3.432-.081-4.867-1.483A5.87,5.87,0,0,1,86.6,25.646v-25L90.313,0V25.045a6.047,6.047,0,0,0,.159,1.523,2.084,2.084,0,0,0,.519.962,2.217,2.217,0,0,0,.957.541,9.816,9.816,0,0,0,1.476.3L92.906,31.5Zm6.5-25a2.374,2.374,0,0,1-1.695-.661,2.337,2.337,0,0,1-.7-1.783,2.336,2.336,0,0,1,.7-1.783,2.5,2.5,0,0,1,3.391,0,2.342,2.342,0,0,1,.7,1.783,2.343,2.343,0,0,1-.7,1.783,2.38,2.38,0,0,1-1.7.661ZM97.574,31.1h3.71V10.259h-3.71V31.1ZM114.368,9.738a10.718,10.718,0,0,1,3.77.581,6.112,6.112,0,0,1,2.473,1.642,6.239,6.239,0,0,1,1.337,2.525,12.269,12.269,0,0,1,.4,3.225V30.735l-1.336.22q-.964.154-1.935.26-1.077.12-2.334.22t-2.494.1a13.591,13.591,0,0,1-3.231-.361,7.219,7.219,0,0,1-2.554-1.142,5.22,5.22,0,0,1-1.675-2.064,7.248,7.248,0,0,1-.6-3.085,5.955,5.955,0,0,1,.7-2.965,5.571,5.571,0,0,1,1.894-2,8.767,8.767,0,0,1,2.793-1.122,15.157,15.157,0,0,1,3.351-.361,11.567,11.567,0,0,1,1.157.06q.571.057,1.137.161.539.1.938.18.28.055.558.12V17.912a8.412,8.412,0,0,0-.2-1.823,4.19,4.19,0,0,0-.718-1.6,3.64,3.64,0,0,0-1.416-1.122,5.539,5.539,0,0,0-2.333-.421,17.489,17.489,0,0,0-3.212.26,11.243,11.243,0,0,0-2.054.541l-.439-3.086a11.43,11.43,0,0,1,2.394-.621,20.548,20.548,0,0,1,3.63-.3Zm.319,18.673q1.317,0,2.334-.06a10.109,10.109,0,0,0,1.7-.22V21.92a4.765,4.765,0,0,0-1.3-.341,14.366,14.366,0,0,0-2.175-.141,13.953,13.953,0,0,0-1.775.121,5.463,5.463,0,0,0-1.715.5,3.675,3.675,0,0,0-1.3,1.042,2.742,2.742,0,0,0-.519,1.743,3,3,0,0,0,1.277,2.785,6.615,6.615,0,0,0,3.471.782Z" fill="#091522"/>
    </g>
  </g>
</svg>
